# xmcd
#
# Track frame offsets: 
#        150
#        18209
#        43692
#        65063
#        86254
#        108279
#        127077
#        157969
#        177552
#        199752
#        218762
#        228974
#
# Disc length: 3428 seconds
#
# Revision: 1
# Processed by: cddbd v1.5.2PL0 Copyright (c) Steve Scherf et al.
# Submitted via: ExactAudioCopy v0.99pb3
#
DISCID=9d0d620c
DTITLE=Tommy Castro - Gratitude
DYEAR=2003
DGENRE=Blues
TTITLE0=I Take What I Want
TTITLE1=Come Back Baby
TTITLE2=Lovey Dovey
TTITLE3=44
TTITLE4=Bad Case Of Love
TTITLE5=Tulane
TTITLE6=It Serves You Right To Suffer
TTITLE7=I Feel That Old Feeling Coming On
TTITLE8=Everybody Wants To Go To Heaven
TTITLE9=I Found A Love
TTITLE10=I Wants To Be Loved
TTITLE11=When My Left Eye Jumps
EXTD=YEAR: 2003
EXTT0=
EXTT1=
EXTT2=
EXTT3=
EXTT4=
EXTT5=
EXTT6=
EXTT7=
EXTT8=
EXTT9=
EXTT10=
EXTT11=
PLAYORDER=
